# xmcd CD database file
#
# Track frame offsets:
#	150
#	7118
#	26835
#	45130
#	64615
#	81314
#	97126
#	117159
#	137954
#	159034
#	178102
#	198624
#	218791
#
# Disc length: 3168 seconds
#
# Revision: 2
# Processed by: cddbd v1.5PL3 Copyright (c) Steve Scherf et al.
# Submitted via: jetAudio 5
#
DISCID=b10c5e0d
DTITLE=tei - The first journey
DYEAR=2003
DGENRE=Ballad
TTITLE0=Intro
TTITLE1=사랑은...향기를 남기고
TTITLE2=닮은 사람
TTITLE3=회상
TTITLE4=Why
TTITLE5=Another love
TTITLE6=Falling in love
TTITLE7=집착
TTITLE8=단념
TTITLE9=다신 눈물이...
TTITLE10=겨울愛
TTITLE11=사랑이 변하니
TTITLE12=소녀와 가로등
EXTD=
EXTT0=
EXTT1=
EXTT2=
EXTT3=
EXTT4=
EXTT5=
EXTT6=
EXTT7=
EXTT8=
EXTT9=
EXTT10=
EXTT11=
EXTT12=
PLAYORDER=
